<svg xmlns="http://www.w3.org/2000/svg" viewBox="0 0 600 700"><defs><filter id="shadow" x="-30%" y="-30%" width="160%" height="180%"><feDropShadow dx="4" dy="16" stdDeviation="10" flood-color="#26321c" flood-opacity=".13"/></filter><linearGradient id="fabric" x1="0" y1="0" x2="1" y2="1"><stop offset="0" stop-color="#ffffff" stop-opacity=".19"/><stop offset=".45" stop-color="#ffffff" stop-opacity="0"/><stop offset="1" stop-color="#000000" stop-opacity=".13"/></linearGradient><pattern id="rib" patternUnits="userSpaceOnUse" width="5" height="5"><path d="M0 0V5" stroke="#ffffff" stroke-opacity=".085" stroke-width="1"/></pattern></defs><g filter="url(#shadow)"><path d="M120 366 129 207 242 194 282 226 268 307 316 340 429 369Q476 382 490 414L488 450 101 450 94 414Z" fill="#343835"/><path d="M120 366 129 207 242 194 282 226 268 307 316 340 429 369Q476 382 490 414L488 450 101 450 94 414Z" fill="url(#fabric)"/><path d="M96 420Q245 429 489 413L488 450 103 450Z" fill="#2a2d28"/><path d="M121 368 241 370 239 224M144 209 151 322M258 310Q243 343 269 365M299 349Q345 369 350 391" fill="none" stroke="#d8d7b6" stroke-opacity=".35" stroke-width="3"/><path d="M233 204V258" stroke="#151b13" stroke-width="9"/><path d="M107 447 122 462 144 462 149 451 176 451 183 462 205 462 211 451 248 451 254 462 278 462 284 451 318 451 325 462 348 462 355 450 389 450 395 462 419 462 426 450 468 450 475 461 490 450" fill="#262b23"/></g></svg>